<svg width="884" height="728" viewBox="0 0 884 728" fill="none" xmlns="http://www.w3.org/2000/svg">
<path d="M364.005 0C565.039 0.000197922 728.009 162.971 728.009 364.005C728.009 565.039 565.039 728.009 364.005 728.009C162.971 728.009 0.000198025 565.039 0 364.005C0 162.971 162.971 0 364.005 0ZM364.006 164.39C253.761 164.39 164.391 253.76 164.391 364.005C164.391 474.249 253.761 563.62 364.006 563.62C474.25 563.62 563.621 474.249 563.621 364.005C563.621 253.76 474.25 164.39 364.006 164.39Z" fill="#252525"/>
<path d="M519.906 0C720.94 0.000197922 883.91 162.971 883.91 364.005C883.91 565.039 720.94 728.009 519.906 728.009C318.872 728.009 155.902 565.039 155.901 364.005C155.901 162.971 318.872 0 519.906 0ZM519.907 164.39C409.663 164.39 320.292 253.76 320.292 364.005C320.292 474.249 409.663 563.62 519.907 563.62C630.152 563.62 719.522 474.249 719.522 364.005C719.522 253.76 630.152 164.39 519.907 164.39Z" fill="#07D679"/>
</svg>
