<svg width="524" height="524" viewBox="0 0 524 524" fill="none" xmlns="http://www.w3.org/2000/svg">
<path d="M262 0C406.699 0 524 117.301 524 262C524 406.699 406.699 524 262 524C117.301 524 0 406.699 0 262C0 117.301 117.301 0 262 0ZM269.021 83.4395C238.421 83.4395 212.202 88.1932 190.365 97.7002C168.677 107.059 151.594 119.982 139.116 136.471C126.787 152.811 119.137 171.38 116.166 192.177L216.658 195.741C219.035 184.749 224.606 176.133 233.37 169.895C242.134 163.656 253.721 160.536 268.13 160.536C281.499 160.536 292.12 163.656 299.993 169.895C307.866 176.134 311.803 184.972 311.803 196.41V197.524C311.803 204.506 309.055 209.928 303.559 213.79C298.211 217.504 289.595 220.401 277.711 222.48C265.827 224.412 250.156 226.268 230.696 228.051C213.316 229.536 196.975 232.432 181.675 236.74C166.375 240.9 152.857 247.064 141.122 255.234C129.387 263.404 120.177 274.026 113.492 287.099C106.808 300.171 103.465 316.214 103.465 335.228C103.465 357.807 108.293 376.598 117.948 391.602C127.752 406.456 141.047 417.597 157.833 425.024C174.767 432.303 194.153 435.942 215.989 435.942C231.884 435.942 246.145 433.938 258.771 429.927C271.547 425.916 282.613 419.899 291.972 411.878C301.479 403.856 309.278 394.053 315.368 382.466H318.042V430.149H420.54V197.524C420.54 179.402 416.752 163.284 409.176 149.172C401.748 135.06 391.202 123.176 377.535 113.521C363.869 103.716 347.826 96.2889 329.406 91.2383C310.986 86.0392 290.858 83.4395 269.021 83.4395ZM312.472 308.489C312.472 319.63 309.649 329.434 304.004 337.901C298.359 346.22 290.783 352.756 281.276 357.51C271.918 362.263 261.371 364.64 249.636 364.64C237.158 364.64 226.834 361.669 218.664 355.728C210.642 349.786 206.631 341.17 206.631 329.88C206.631 322.453 208.488 316.065 212.202 310.717C216.064 305.221 221.56 300.764 228.69 297.348C235.969 293.931 244.734 291.406 254.983 289.772C260.034 289.03 265.307 288.213 270.804 287.321C276.3 286.43 281.648 285.39 286.847 284.201C292.046 283.013 296.8 281.75 301.107 280.413C305.564 279.076 309.352 277.591 312.472 275.957V308.489Z" fill="black"/>
</svg>
