<svg width="503" height="106" viewBox="0 0 503 106" fill="none" xmlns="http://www.w3.org/2000/svg">
<path d="M441.687 105.736C435.144 105.736 429.336 104.645 424.262 102.465C419.233 100.239 415.249 96.9011 412.312 92.4503C409.419 87.955 407.972 82.3248 407.972 75.5597C407.972 69.8627 408.974 65.0559 410.977 61.1392C412.979 57.2225 415.739 54.0403 419.255 51.5923C422.771 49.1444 426.821 47.2974 431.406 46.0511C435.99 44.7604 440.886 43.8925 446.093 43.4474C451.924 42.9134 456.619 42.357 460.18 41.7784C463.74 41.1553 466.322 40.2874 467.924 39.1747C469.571 38.0175 470.394 36.393 470.394 34.3011V33.9673C470.394 30.5402 469.215 27.892 466.856 26.0227C464.497 24.1534 461.315 23.2188 457.309 23.2188C452.992 23.2188 449.52 24.1534 446.894 26.0227C444.268 27.892 442.599 30.4735 441.887 33.7671L411.778 32.6989C412.668 26.4678 414.96 20.9044 418.654 16.0085C422.393 11.0682 427.511 7.19603 434.009 4.39205C440.552 1.54357 448.408 0.119324 457.576 0.119324C464.119 0.119324 470.149 0.89821 475.668 2.45597C481.187 3.96923 485.994 6.1946 490.089 9.1321C494.184 12.0251 497.344 15.5857 499.569 19.8139C501.839 24.0421 502.974 28.8712 502.974 34.3011V104H472.264V89.7131H471.462C469.638 93.1847 467.301 96.1222 464.453 98.5256C461.649 100.929 458.333 102.732 454.505 103.933C450.722 105.135 446.449 105.736 441.687 105.736ZM451.768 84.3722C455.284 84.3722 458.444 83.66 461.248 82.2358C464.096 80.8116 466.366 78.8532 468.058 76.3608C469.749 73.8239 470.595 70.8864 470.595 67.5483V57.8011C469.66 58.2907 468.525 58.7358 467.19 59.1364C465.899 59.5369 464.475 59.9152 462.917 60.2713C461.359 60.6274 459.757 60.9389 458.11 61.206C456.463 61.473 454.883 61.7178 453.37 61.9403C450.299 62.4299 447.673 63.1866 445.492 64.2102C443.356 65.2339 441.709 66.5691 440.552 68.2159C439.439 69.8182 438.883 71.732 438.883 73.9574C438.883 77.34 440.085 79.9214 442.488 81.7017C444.936 83.482 448.029 84.3722 451.768 84.3722Z" fill="#6EDC00"/>
<path d="M335.673 45.5171V104H303.027V1.45455H334.071V20.2813H335.206C337.476 14.0057 341.348 9.0876 346.822 5.52699C352.297 1.92188 358.817 0.119324 366.383 0.119324C373.594 0.119324 379.847 1.74385 385.143 4.9929C390.484 8.19744 394.624 12.6927 397.561 18.4787C400.543 24.2202 402.012 30.9408 401.967 38.6406V104H369.321V45.0497C369.365 39.3527 367.919 34.902 364.981 31.6974C362.088 28.4929 358.061 26.8906 352.898 26.8906C349.471 26.8906 346.444 27.6473 343.818 29.1605C341.237 30.6293 339.234 32.7434 337.81 35.5028C336.43 38.2623 335.718 41.6004 335.673 45.5171Z" fill="#6EDC00"/>
<path d="M231.178 105.736C224.636 105.736 218.827 104.645 213.754 102.465C208.724 100.239 204.741 96.9011 201.803 92.4503C198.91 87.955 197.464 82.3248 197.464 75.5597C197.464 69.8627 198.465 65.0559 200.468 61.1392C202.471 57.2225 205.23 54.0403 208.747 51.5923C212.263 49.1444 216.313 47.2974 220.897 46.0511C225.481 44.7604 230.377 43.8925 235.585 43.4474C241.415 42.9134 246.111 42.357 249.671 41.7784C253.232 41.1553 255.813 40.2874 257.416 39.1747C259.062 38.0175 259.886 36.393 259.886 34.3011V33.9673C259.886 30.5402 258.706 27.892 256.347 26.0227C253.988 24.1534 250.806 23.2188 246.801 23.2188C242.483 23.2188 239.012 24.1534 236.386 26.0227C233.76 27.892 232.091 30.4735 231.379 33.7671L201.269 32.6989C202.159 26.4678 204.452 20.9044 208.146 16.0085C211.884 11.0682 217.003 7.19603 223.501 4.39205C230.043 1.54357 237.899 0.119324 247.068 0.119324C253.61 0.119324 259.641 0.89821 265.16 2.45597C270.679 3.96923 275.486 6.1946 279.58 9.1321C283.675 12.0251 286.835 15.5857 289.06 19.8139C291.33 24.0421 292.465 28.8712 292.465 34.3011V104H261.755V89.7131H260.954C259.129 93.1847 256.792 96.1222 253.944 98.5256C251.14 100.929 247.824 102.732 243.997 103.933C240.213 105.135 235.941 105.736 231.178 105.736ZM241.259 84.3722C244.775 84.3722 247.935 83.66 250.739 82.2358C253.588 80.8116 255.858 78.8532 257.549 76.3608C259.24 73.8239 260.086 70.8864 260.086 67.5483V57.8011C259.151 58.2907 258.016 58.7358 256.681 59.1364C255.39 59.5369 253.966 59.9152 252.408 60.2713C250.851 60.6274 249.248 60.9389 247.602 61.206C245.955 61.473 244.375 61.7178 242.862 61.9403C239.791 62.4299 237.165 63.1866 234.984 64.2102C232.847 65.2339 231.201 66.5691 230.043 68.2159C228.931 69.8182 228.374 71.732 228.374 73.9574C228.374 77.34 229.576 79.9214 231.979 81.7017C234.427 83.482 237.521 84.3722 241.259 84.3722Z" fill="black"/>
<path d="M201.907 1.45453L166.724 104H129.337L94.2207 1.45453H128.603L147.496 72.0881H148.564L167.525 1.45453H201.907Z" fill="black"/>
<path d="M34.2557 105.736C27.7131 105.736 21.9048 104.645 16.831 102.465C11.8016 100.239 7.81819 96.9011 4.88069 92.4503C1.98769 87.955 0.541199 82.3248 0.541199 75.5597C0.541199 69.8627 1.54262 65.0559 3.54546 61.1392C5.5483 57.2225 8.30777 54.0403 11.8239 51.5923C15.34 49.1444 19.3902 47.2974 23.9744 46.0511C28.5587 44.7604 33.4546 43.8925 38.6619 43.4474C44.4924 42.9134 49.188 42.357 52.7486 41.7784C56.3092 41.1553 58.8906 40.2874 60.4929 39.1747C62.1397 38.0175 62.9631 36.393 62.9631 34.3011V33.9673C62.9631 30.5402 61.7836 27.892 59.4247 26.0227C57.0658 24.1534 53.8835 23.2188 49.8778 23.2188C45.5606 23.2188 42.089 24.1534 39.4631 26.0227C36.8371 27.892 35.1681 30.4735 34.456 33.7671L4.3466 32.6989C5.23675 26.4678 7.52889 20.9044 11.223 16.0085C14.9617 11.0682 20.08 7.19603 26.5781 4.39205C33.1207 1.54357 40.9763 0.119324 50.1449 0.119324C56.6875 0.119324 62.7183 0.89821 68.2372 2.45597C73.7562 3.96923 78.563 6.1946 82.6577 9.1321C86.7524 12.0251 89.9124 15.5857 92.1378 19.8139C94.4077 24.0421 95.5426 28.8712 95.5426 34.3011V104H64.8324V89.7131H64.0313C62.2064 93.1847 59.8698 96.1222 57.0213 98.5256C54.2173 100.929 50.9015 102.732 47.0739 103.933C43.2907 105.135 39.018 105.736 34.2557 105.736ZM44.3367 84.3722C47.8528 84.3722 51.0128 83.66 53.8168 82.2358C56.6653 80.8116 58.9351 78.8532 60.6264 76.3608C62.3177 73.8239 63.1634 70.8864 63.1634 67.5483V57.8011C62.2287 58.2907 61.0938 58.7358 59.7585 59.1364C58.4678 59.5369 57.0436 59.9152 55.4858 60.2713C53.928 60.6274 52.3258 60.9389 50.679 61.206C49.0322 61.473 47.4522 61.7178 45.9389 61.9403C42.8679 62.4299 40.242 63.1866 38.0611 64.2102C35.9247 65.2339 34.2779 66.5691 33.1207 68.2159C32.0081 69.8182 31.4517 71.732 31.4517 73.9574C31.4517 77.34 32.6534 79.9214 35.0568 81.7017C37.5047 83.482 40.598 84.3722 44.3367 84.3722Z" fill="black"/>
</svg>
