<svg width="690" height="152" viewBox="0 0 690 152" fill="none" xmlns="http://www.w3.org/2000/svg">
<path d="M612.253 151.95C602.99 151.95 594.647 150.301 587.223 147.001C579.863 143.639 574.026 138.69 569.712 132.155C565.461 125.62 563.335 117.562 563.335 107.982C563.335 99.7335 564.858 92.9129 567.904 87.5199C570.949 82.1269 575.105 77.8125 580.371 74.5767C585.637 71.3409 591.569 68.8982 598.168 67.2486C604.83 65.5355 611.714 64.2983 618.82 63.5369C627.385 62.6487 634.333 61.8556 639.662 61.1577C644.992 60.3963 648.862 59.2543 651.273 57.7315C653.747 56.1454 654.985 53.7027 654.985 50.4034V49.8324C654.985 42.6629 652.859 37.1113 648.608 33.1776C644.357 29.2439 638.235 27.277 630.24 27.277C621.802 27.277 615.108 29.117 610.159 32.7969C605.274 36.4768 601.975 40.8229 600.262 45.8352L568.094 41.2671C570.632 32.3845 574.819 24.9612 580.656 18.9972C586.494 12.9697 593.631 8.46497 602.07 5.48297C610.508 2.43752 619.835 0.914795 630.05 0.914795C637.092 0.914795 644.103 1.7396 651.083 3.38922C658.062 5.03884 664.438 7.76706 670.212 11.5739C675.985 15.3172 680.617 20.4247 684.107 26.8963C687.66 33.3679 689.436 41.4574 689.436 51.1648V149H656.317V128.919H655.175C653.081 132.98 650.131 136.786 646.324 140.34C642.581 143.829 637.854 146.652 632.144 148.81C626.497 150.903 619.867 151.95 612.253 151.95ZM621.199 126.635C628.115 126.635 634.11 125.271 639.186 122.543C644.262 119.751 648.164 116.071 650.892 111.503C653.684 106.935 655.08 101.954 655.08 96.5611V79.3352C654.001 80.2235 652.161 81.0483 649.56 81.8097C647.022 82.571 644.167 83.2372 640.995 83.8083C637.822 84.3793 634.682 84.8869 631.573 85.331C628.464 85.7751 625.767 86.1558 623.483 86.473C618.344 87.1709 613.744 88.313 609.683 89.8992C605.623 91.4853 602.419 93.706 600.071 96.5611C597.724 99.3528 596.55 102.969 596.55 107.411C596.55 113.755 598.866 118.545 603.497 121.781C608.129 125.017 614.03 126.635 621.199 126.635Z" fill="#6EDC00"/>
<path d="M454.727 63.3466V149H420.275V2.8182H453.204V27.6577H454.917C458.28 19.473 463.641 12.9697 471.001 8.14775C478.424 3.32578 487.592 0.914795 498.505 0.914795C508.593 0.914795 517.381 3.07199 524.867 7.38638C532.418 11.7008 538.255 17.9503 542.379 26.135C546.566 34.3196 548.628 44.2491 548.565 55.9233V149H514.113V61.2529C514.113 51.482 511.575 43.8367 506.5 38.3168C501.487 32.7969 494.54 30.0369 485.657 30.0369C479.63 30.0369 474.269 31.3693 469.573 34.0341C464.942 36.6354 461.294 40.4105 458.629 45.3594C456.027 50.3083 454.727 56.304 454.727 63.3466Z" fill="#6EDC00"/>
<path d="M321.85 151.95C312.587 151.95 304.243 150.301 296.82 147.001C289.46 143.639 283.623 138.69 279.309 132.155C275.058 125.62 272.932 117.562 272.932 107.982C272.932 99.7335 274.455 92.9129 277.5 87.5199C280.546 82.1269 284.702 77.8125 289.968 74.5767C295.234 71.3409 301.166 68.8982 307.765 67.2486C314.427 65.5355 321.311 64.2983 328.417 63.5369C336.982 62.6487 343.929 61.8556 349.259 61.1577C354.589 60.3963 358.459 59.2543 360.87 57.7315C363.344 56.1454 364.581 53.7027 364.581 50.4034V49.8324C364.581 42.6629 362.456 37.1113 358.205 33.1776C353.954 29.2439 347.831 27.277 339.837 27.277C331.399 27.277 324.705 29.117 319.756 32.7969C314.871 36.4768 311.571 40.8229 309.858 45.8352L277.691 41.2671C280.229 32.3845 284.416 24.9612 290.253 18.9972C296.09 12.9697 303.228 8.46497 311.667 5.48297C320.105 2.43752 329.432 0.914795 339.647 0.914795C346.689 0.914795 353.7 1.7396 360.679 3.38922C367.659 5.03884 374.035 7.76706 379.809 11.5739C385.582 15.3172 390.214 20.4247 393.704 26.8963C397.257 33.3679 399.033 41.4574 399.033 51.1648V149H365.914V128.919H364.772C362.678 132.98 359.728 136.786 355.921 140.34C352.178 143.829 347.451 146.652 341.741 148.81C336.094 150.903 329.464 151.95 321.85 151.95ZM330.796 126.635C337.712 126.635 343.707 125.271 348.783 122.543C353.859 119.751 357.761 116.071 360.489 111.503C363.281 106.935 364.677 101.954 364.677 96.5611V79.3352C363.598 80.2235 361.758 81.0483 359.157 81.8097C356.619 82.571 353.764 83.2372 350.591 83.8083C347.419 84.3793 344.278 84.8869 341.169 85.331C338.061 85.7751 335.364 86.1558 333.08 86.473C327.941 87.1709 323.341 88.313 319.28 89.8992C315.22 91.4853 312.016 93.706 309.668 96.5611C307.321 99.3528 306.147 102.969 306.147 107.411C306.147 113.755 308.463 118.545 313.094 121.781C317.726 125.017 323.626 126.635 330.796 126.635Z" fill="black"/>
<path d="M273.532 2.81818L221.474 149H183.405L131.347 2.81818H168.083L201.678 111.408H203.201L236.891 2.81818H273.532Z" fill="black"/>
<path d="M49.767 151.95C40.5038 151.95 32.1605 150.301 24.7372 147.001C17.3774 143.639 11.5402 138.69 7.22585 132.155C2.9749 125.62 0.849426 117.562 0.849426 107.982C0.849426 99.7335 2.37215 92.9129 5.41761 87.5199C8.46306 82.1269 12.6188 77.8125 17.8849 74.5767C23.151 71.3409 29.0833 68.8982 35.6818 67.2486C42.3437 65.5355 49.2277 64.2983 56.3338 63.5369C64.8991 62.6487 71.8466 61.8556 77.1761 61.1577C82.5057 60.3963 86.3759 59.2543 88.7869 57.7315C91.2614 56.1454 92.4986 53.7027 92.4986 50.4034V49.8324C92.4986 42.6629 90.3731 37.1113 86.1222 33.1776C81.8712 29.2439 75.7486 27.277 67.7543 27.277C59.3158 27.277 52.6222 29.117 47.6733 32.7969C42.7879 36.4768 39.4886 40.8229 37.7756 45.8352L5.60795 41.2671C8.14583 32.3845 12.3333 24.9612 18.1705 18.9972C24.0076 12.9697 31.1454 8.46497 39.5838 5.48297C48.0223 2.43752 57.349 0.914795 67.5639 0.914795C74.6065 0.914795 81.6174 1.7396 88.5966 3.38922C95.5758 5.03884 101.952 7.76706 107.726 11.5739C113.5 15.3172 118.131 20.4247 121.621 26.8963C125.174 33.3679 126.95 41.4574 126.95 51.1648V149H93.831V128.919H92.6889C90.5952 132.98 87.6449 136.786 83.8381 140.34C80.0947 143.829 75.3679 146.652 69.6577 148.81C64.0109 150.903 57.3807 151.95 49.767 151.95ZM58.7131 126.635C65.6288 126.635 71.6245 125.271 76.7003 122.543C81.776 119.751 85.678 116.071 88.4062 111.503C91.1979 106.935 92.5937 101.954 92.5937 96.5611V79.3352C91.5151 80.2235 89.6752 81.0483 87.0739 81.8097C84.536 82.571 81.6809 83.2372 78.5085 83.8083C75.3362 84.3793 72.1955 84.8869 69.0866 85.331C65.9777 85.7751 63.2812 86.1558 60.9972 86.473C55.8579 87.1709 51.258 88.313 47.1974 89.8992C43.1368 91.4853 39.9328 93.706 37.5852 96.5611C35.2377 99.3528 34.0639 102.969 34.0639 107.411C34.0639 113.755 36.3797 118.545 41.0114 121.781C45.643 125.017 51.5436 126.635 58.7131 126.635Z" fill="black"/>
</svg>
