<svg width="650" height="650" viewBox="0 0 650 650" fill="none" xmlns="http://www.w3.org/2000/svg">
<rect width="650" height="650" fill="#D9D9D9"/>
<ellipse cx="325.5" cy="330" rx="250.5" ry="251" fill="#CBCBCB"/>
<path d="M281.433 496.779C260.53 496.779 241.972 493.295 225.761 486.327C209.692 479.217 196.965 468.552 187.579 454.331C178.336 439.969 173.715 421.98 173.715 400.365C173.715 382.163 176.914 366.805 183.313 354.291C189.712 341.777 198.529 331.61 209.763 323.789C220.997 315.968 233.938 310.066 248.585 306.084C263.231 301.961 278.874 299.188 295.512 297.766C314.14 296.059 329.143 294.282 340.519 292.433C351.895 290.442 360.143 287.669 365.262 284.114C370.524 280.417 373.154 275.226 373.154 268.543V267.476C373.154 256.527 369.386 248.066 361.849 242.093C354.313 236.12 344.145 233.134 331.347 233.134C317.553 233.134 306.461 236.12 298.071 242.093C289.681 248.066 284.349 256.313 282.073 266.836L185.873 263.424C188.717 243.515 196.041 225.74 207.843 210.097C219.788 194.313 236.142 181.941 256.903 172.982C277.807 163.881 302.906 159.331 332.2 159.331C353.104 159.331 372.372 161.819 390.006 166.796C407.639 171.631 422.997 178.742 436.079 188.127C449.162 197.37 459.258 208.746 466.369 222.256C473.621 235.765 477.247 251.194 477.247 268.543V491.233H379.127V445.586H376.567C370.737 456.678 363.271 466.063 354.17 473.742C345.212 481.421 334.617 487.18 322.388 491.02C310.301 494.859 296.649 496.779 281.433 496.779ZM313.642 428.521C324.876 428.521 334.973 426.246 343.932 421.696C353.033 417.145 360.285 410.888 365.689 402.925C371.093 394.819 373.794 385.434 373.794 374.769V343.626C370.808 345.19 367.182 346.612 362.916 347.892C358.792 349.172 354.242 350.381 349.264 351.518C344.287 352.656 339.168 353.651 333.906 354.505C328.645 355.358 323.597 356.14 318.762 356.851C308.95 358.415 300.56 360.833 293.592 364.103C286.766 367.374 281.505 371.64 277.807 376.902C274.252 382.021 272.475 388.136 272.475 395.246C272.475 406.053 276.314 414.301 283.993 419.989C291.814 425.677 301.697 428.521 313.642 428.521Z" fill="white"/>
</svg>
