<svg width="524" height="524" viewBox="0 0 524 524" fill="none" xmlns="http://www.w3.org/2000/svg">
<circle cx="262" cy="262" r="262" fill="#6EDC00"/>
<path d="M215.99 435.943C194.153 435.943 174.768 432.303 157.833 425.025C141.047 417.597 127.752 406.456 117.948 391.601C108.293 376.598 103.465 357.807 103.465 335.228C103.465 316.214 106.807 300.17 113.492 287.098C120.177 274.026 129.386 263.405 141.122 255.235C152.857 247.065 166.375 240.9 181.675 236.741C196.976 232.433 213.316 229.536 230.696 228.051C250.156 226.268 265.827 224.411 277.711 222.48C289.595 220.4 298.211 217.504 303.559 213.79C309.055 209.928 311.803 204.506 311.803 197.524V196.41C311.803 184.972 307.866 176.133 299.993 169.894C292.12 163.655 281.499 160.536 268.13 160.536C253.721 160.536 242.134 163.655 233.37 169.894C224.606 176.133 219.035 184.749 216.658 195.741L116.166 192.176C119.137 171.38 126.787 152.811 139.116 136.471C151.594 119.982 168.677 107.059 190.365 97.7C212.202 88.193 238.42 83.4395 269.021 83.4395C290.858 83.4395 310.986 86.039 329.406 91.2382C347.826 96.2888 363.869 103.716 377.535 113.52C391.202 123.176 401.748 135.06 409.176 149.172C416.752 163.284 420.54 179.401 420.54 197.524V430.15H318.042V382.466H315.368C309.278 394.052 301.479 403.857 291.972 411.878C282.613 419.9 271.546 425.916 258.771 429.927C246.145 433.938 231.884 435.943 215.99 435.943ZM249.636 364.64C261.371 364.64 271.918 362.263 281.276 357.51C290.783 352.756 298.359 346.22 304.004 337.901C309.649 329.434 312.471 319.63 312.471 308.489V275.957C309.352 277.591 305.564 279.077 301.107 280.414C296.8 281.751 292.046 283.013 286.847 284.201C281.648 285.39 276.3 286.43 270.804 287.321C265.308 288.212 260.034 289.029 254.984 289.772C244.734 291.406 235.969 293.931 228.691 297.348C221.56 300.765 216.064 305.221 212.202 310.717C208.488 316.065 206.631 322.452 206.631 329.88C206.631 341.169 210.642 349.785 218.664 355.727C226.834 361.669 237.158 364.64 249.636 364.64Z" fill="white"/>
</svg>
