<svg width="982" height="728" viewBox="0 0 982 728" fill="none" xmlns="http://www.w3.org/2000/svg">
<path d="M364.005 0C565.039 0.000197922 728.009 162.971 728.009 364.005C728.009 565.039 565.039 728.009 364.005 728.009C162.971 728.009 0.000198025 565.039 0 364.005C0 162.971 162.971 0 364.005 0ZM364.006 164.39C253.761 164.39 164.391 253.76 164.391 364.005C164.391 474.249 253.761 563.62 364.006 563.62C474.25 563.62 563.621 474.249 563.621 364.005C563.621 253.76 474.25 164.39 364.006 164.39Z" fill="#252525"/>
<path d="M618.005 0C819.039 0.000197922 982.009 162.971 982.009 364.005C982.009 565.039 819.039 728.009 618.005 728.009C416.971 728.009 254 565.039 254 364.005C254 162.971 416.971 0 618.005 0ZM618.006 164.39C507.761 164.39 418.391 253.76 418.391 364.005C418.391 474.249 507.761 563.62 618.006 563.62C728.25 563.62 817.621 474.249 817.621 364.005C817.621 253.76 728.25 164.39 618.006 164.39Z" fill="#717171"/>
</svg>
