<svg width="602" height="106" viewBox="0 0 602 106" fill="none" xmlns="http://www.w3.org/2000/svg">
<path d="M540.424 105.736C533.881 105.736 528.073 104.645 522.999 102.465C517.97 100.239 513.986 96.9011 511.049 92.4503C508.156 87.955 506.709 82.3248 506.709 75.5597C506.709 69.8627 507.711 65.0559 509.713 61.1392C511.716 57.2225 514.476 54.0403 517.992 51.5923C521.508 49.1444 525.558 47.2974 530.142 46.0511C534.727 44.7604 539.623 43.8925 544.83 43.4474C550.66 42.9134 555.356 42.357 558.917 41.7784C562.477 41.1553 565.059 40.2874 566.661 39.1747C568.308 38.0175 569.131 36.393 569.131 34.3011V33.9673C569.131 30.5402 567.952 27.892 565.593 26.0227C563.234 24.1534 560.052 23.2188 556.046 23.2188C551.729 23.2188 548.257 24.1534 545.631 26.0227C543.005 27.892 541.336 30.4735 540.624 33.7671L510.515 32.6989C511.405 26.4678 513.697 20.9044 517.391 16.0085C521.13 11.0682 526.248 7.19603 532.746 4.39205C539.289 1.54357 547.144 0.119324 556.313 0.119324C562.855 0.119324 568.886 0.89821 574.405 2.45597C579.924 3.96923 584.731 6.1946 588.826 9.1321C592.92 12.0251 596.08 15.5857 598.306 19.8139C600.576 24.0421 601.711 28.8712 601.711 34.3011V104H571V89.7131H570.199C568.374 93.1847 566.038 96.1222 563.189 98.5256C560.385 100.929 557.069 102.732 553.242 103.933C549.459 105.135 545.186 105.736 540.424 105.736ZM550.505 84.3722C554.021 84.3722 557.181 83.66 559.985 82.2358C562.833 80.8116 565.103 78.8532 566.794 76.3608C568.486 73.8239 569.331 70.8864 569.331 67.5483V57.8011C568.397 58.2907 567.262 58.7358 565.927 59.1364C564.636 59.5369 563.212 59.9152 561.654 60.2713C560.096 60.6274 558.494 60.9389 556.847 61.206C555.2 61.473 553.62 61.7178 552.107 61.9403C549.036 62.4299 546.41 63.1866 544.229 64.2102C542.093 65.2339 540.446 66.5691 539.289 68.2159C538.176 69.8182 537.62 71.732 537.62 73.9574C537.62 77.34 538.821 79.9214 541.225 81.7017C543.673 83.482 546.766 84.3722 550.505 84.3722Z" fill="#6EDC00"/>
<path d="M434.41 45.5171V104H401.764V1.45455H432.808V20.2813H433.943C436.213 14.0057 440.085 9.0876 445.559 5.52699C451.034 1.92188 457.554 0.119324 465.12 0.119324C472.33 0.119324 478.584 1.74385 483.88 4.9929C489.221 8.19744 493.36 12.6927 496.298 18.4787C499.28 24.2202 500.749 30.9408 500.704 38.6406V104H468.058V45.0497C468.102 39.3527 466.656 34.902 463.718 31.6974C460.825 28.4929 456.797 26.8906 451.634 26.8906C448.207 26.8906 445.181 27.6473 442.555 29.1605C439.973 30.6293 437.971 32.7434 436.546 35.5028C435.167 38.2623 434.454 41.6004 434.41 45.5171Z" fill="#6EDC00"/>
<path d="M329.915 105.736C323.372 105.736 317.564 104.645 312.49 102.465C307.461 100.239 303.478 96.9011 300.54 92.4503C297.647 87.955 296.201 82.3248 296.201 75.5597C296.201 69.8627 297.202 65.0559 299.205 61.1392C301.208 57.2225 303.967 54.0403 307.483 51.5923C310.999 49.1444 315.05 47.2974 319.634 46.0511C324.218 44.7604 329.114 43.8925 334.321 43.4474C340.152 42.9134 344.847 42.357 348.408 41.7784C351.969 41.1553 354.55 40.2874 356.152 39.1747C357.799 38.0175 358.622 36.393 358.622 34.3011V33.9673C358.622 30.5402 357.443 27.892 355.084 26.0227C352.725 24.1534 349.543 23.2188 345.537 23.2188C341.22 23.2188 337.748 24.1534 335.122 26.0227C332.496 27.892 330.827 30.4735 330.115 33.7671L300.006 32.6989C300.896 26.4678 303.188 20.9044 306.882 16.0085C310.621 11.0682 315.739 7.19603 322.237 4.39205C328.78 1.54357 336.636 0.119324 345.804 0.119324C352.347 0.119324 358.378 0.89821 363.897 2.45597C369.416 3.96923 374.222 6.1946 378.317 9.1321C382.412 12.0251 385.572 15.5857 387.797 19.8139C390.067 24.0421 391.202 28.8712 391.202 34.3011V104H360.492V89.7131H359.691C357.866 93.1847 355.529 96.1222 352.681 98.5256C349.877 100.929 346.561 102.732 342.733 103.933C338.95 105.135 334.677 105.736 329.915 105.736ZM339.996 84.3722C343.512 84.3722 346.672 83.66 349.476 82.2358C352.325 80.8116 354.595 78.8532 356.286 76.3608C357.977 73.8239 358.823 70.8864 358.823 67.5483V57.8011C357.888 58.2907 356.753 58.7358 355.418 59.1364C354.127 59.5369 352.703 59.9152 351.145 60.2713C349.587 60.6274 347.985 60.9389 346.338 61.206C344.692 61.473 343.112 61.7178 341.598 61.9403C338.527 62.4299 335.901 63.1866 333.72 64.2102C331.584 65.2339 329.937 66.5691 328.78 68.2159C327.667 69.8182 327.111 71.732 327.111 73.9574C327.111 77.34 328.313 79.9214 330.716 81.7017C333.164 83.482 336.257 84.3722 339.996 84.3722Z" fill="black"/>
<path d="M300.644 1.45453L265.46 104H228.074L192.957 1.45453H227.34L246.233 72.0881H247.301L266.261 1.45453H300.644Z" fill="black"/>
<path d="M132.992 105.736C126.45 105.736 120.642 104.645 115.568 102.465C110.538 100.239 106.555 96.9011 103.617 92.4503C100.724 87.955 99.2779 82.3248 99.2779 75.5597C99.2779 69.8627 100.279 65.0559 102.282 61.1392C104.285 57.2225 107.044 54.0403 110.561 51.5923C114.077 49.1444 118.127 47.2974 122.711 46.0511C127.295 44.7604 132.191 43.8925 137.399 43.4474C143.229 42.9134 147.925 42.357 151.485 41.7784C155.046 41.1553 157.627 40.2874 159.23 39.1747C160.876 38.0175 161.7 36.393 161.7 34.3011V33.9673C161.7 30.5402 160.52 27.892 158.161 26.0227C155.803 24.1534 152.62 23.2188 148.615 23.2188C144.297 23.2188 140.826 24.1534 138.2 26.0227C135.574 27.892 133.905 30.4735 133.193 33.7671L103.083 32.6989C103.973 26.4678 106.266 20.9044 109.96 16.0085C113.698 11.0682 118.817 7.19603 125.315 4.39205C131.857 1.54357 139.713 0.119324 148.882 0.119324C155.424 0.119324 161.455 0.89821 166.974 2.45597C172.493 3.96923 177.3 6.1946 181.394 9.1321C185.489 12.0251 188.649 15.5857 190.874 19.8139C193.144 24.0421 194.279 28.8712 194.279 34.3011V104H163.569V89.7131H162.768C160.943 93.1847 158.606 96.1222 155.758 98.5256C152.954 100.929 149.638 102.732 145.811 103.933C142.027 105.135 137.755 105.736 132.992 105.736ZM143.073 84.3722C146.589 84.3722 149.749 83.66 152.553 82.2358C155.402 80.8116 157.672 78.8532 159.363 76.3608C161.054 73.8239 161.9 70.8864 161.9 67.5483V57.8011C160.965 58.2907 159.83 58.7358 158.495 59.1364C157.205 59.5369 155.78 59.9152 154.223 60.2713C152.665 60.6274 151.062 60.9389 149.416 61.206C147.769 61.473 146.189 61.7178 144.676 61.9403C141.605 62.4299 138.979 63.1866 136.798 64.2102C134.661 65.2339 133.015 66.5691 131.857 68.2159C130.745 69.8182 130.188 71.732 130.188 73.9574C130.188 77.34 131.39 79.9214 133.794 81.7017C136.241 83.482 139.335 84.3722 143.073 84.3722Z" fill="black"/>
<path d="M94.875 32.7656L64.8991 33.5668C64.5876 31.4304 63.7419 29.5388 62.3622 27.8921C60.9825 26.2008 59.1799 24.8878 56.9545 23.9531C54.7737 22.974 52.2367 22.4844 49.3437 22.4844C45.5606 22.4844 42.3338 23.241 39.6633 24.7543C37.0374 26.2675 35.7467 28.3149 35.7912 30.8963C35.7467 32.8992 36.5478 34.6349 38.1946 36.1037C39.8859 37.5724 42.8901 38.7519 47.2074 39.6421L66.9687 43.3807C77.2055 45.339 84.8163 48.5881 89.8011 53.1278C94.8305 57.6676 97.3674 63.6761 97.4119 71.1534C97.3674 78.1856 95.2756 84.3054 91.1364 89.5128C87.0417 94.7202 81.4337 98.7704 74.3125 101.663C67.1913 104.512 59.0464 105.936 49.8778 105.936C35.2348 105.936 23.6851 102.932 15.2287 96.9233C6.81675 90.8703 2.00993 82.7699 0.808228 72.6222L33.054 71.821C33.7661 75.5597 35.6132 78.4081 38.5952 80.3665C41.5772 82.3248 45.3826 83.304 50.0114 83.304C54.1951 83.304 57.5999 82.5251 60.2258 80.9673C62.8518 79.4096 64.187 77.34 64.2315 74.7585C64.187 72.4441 63.1633 70.5971 61.1605 69.2173C59.1577 67.7931 56.0199 66.6804 51.7471 65.8793L33.8551 62.4744C23.5739 60.6051 15.9186 57.1558 10.8892 52.1264C5.85984 47.0526 3.36741 40.599 3.41192 32.7656C3.36741 25.9115 5.19222 20.0587 8.88635 15.2074C12.5805 10.3116 17.8324 6.57292 24.642 3.99148C31.4517 1.41004 39.4853 0.119324 48.7429 0.119324C62.6293 0.119324 73.5781 3.03458 81.5895 8.86507C89.6009 14.651 94.0294 22.6179 94.875 32.7656Z" fill="black"/>
</svg>
