<svg width="871" height="148" viewBox="0 0 871 148" fill="none" xmlns="http://www.w3.org/2000/svg">
<path d="M803.965 87.5171V146H771.318V43.4546H802.362V62.2813H803.497C805.767 56.0057 809.639 51.0876 815.114 47.527C820.588 43.9219 827.109 42.1193 834.675 42.1193C841.885 42.1193 848.138 43.7438 853.435 46.9929C858.776 50.1974 862.915 54.6927 865.852 60.4787C868.834 66.2202 870.303 72.9408 870.259 80.6406V146H837.612V87.0497C837.657 81.3527 836.21 76.902 833.273 73.6974C830.38 70.4929 826.352 68.8906 821.189 68.8906C817.762 68.8906 814.736 69.6473 812.11 71.1605C809.528 72.6293 807.525 74.7434 806.101 77.5028C804.721 80.2623 804.009 83.6004 803.965 87.5171Z" fill="#6EDC00"/>
<path d="M699.47 147.736C692.927 147.736 687.119 146.645 682.045 144.465C677.016 142.239 673.032 138.901 670.095 134.45C667.202 129.955 665.755 124.325 665.755 117.56C665.755 111.863 666.757 107.056 668.76 103.139C670.762 99.2225 673.522 96.0403 677.038 93.5923C680.554 91.1444 684.604 89.2974 689.188 88.0511C693.773 86.7604 698.669 85.8925 703.876 85.4474C709.706 84.9134 714.402 84.357 717.963 83.7784C721.523 83.1553 724.105 82.2874 725.707 81.1747C727.354 80.0175 728.177 78.393 728.177 76.3011V75.9673C728.177 72.5402 726.998 69.892 724.639 68.0227C722.28 66.1534 719.098 65.2188 715.092 65.2188C710.775 65.2188 707.303 66.1534 704.677 68.0227C702.051 69.892 700.382 72.4735 699.67 75.7671L669.561 74.6989C670.451 68.4678 672.743 62.9044 676.437 58.0085C680.176 53.0682 685.294 49.196 691.792 46.3921C698.335 43.5436 706.19 42.1193 715.359 42.1193C721.902 42.1193 727.932 42.8982 733.451 44.456C738.97 45.9692 743.777 48.1946 747.872 51.1321C751.966 54.0251 755.126 57.5857 757.352 61.8139C759.622 66.0421 760.757 70.8712 760.757 76.3011V146H730.046V131.713H729.245C727.42 135.185 725.084 138.122 722.235 140.526C719.431 142.929 716.116 144.732 712.288 145.933C708.505 147.135 704.232 147.736 699.47 147.736ZM709.551 126.372C713.067 126.372 716.227 125.66 719.031 124.236C721.879 122.812 724.149 120.853 725.84 118.361C727.532 115.824 728.377 112.886 728.377 109.548V99.8011C727.443 100.291 726.308 100.736 724.973 101.136C723.682 101.537 722.258 101.915 720.7 102.271C719.142 102.627 717.54 102.939 715.893 103.206C714.246 103.473 712.666 103.718 711.153 103.94C708.082 104.43 705.456 105.187 703.275 106.21C701.139 107.234 699.492 108.569 698.335 110.216C697.222 111.818 696.666 113.732 696.666 115.957C696.666 119.34 697.867 121.921 700.271 123.702C702.719 125.482 705.812 126.372 709.551 126.372Z" fill="#6EDC00"/>
<path d="M615.654 147.936C604.839 147.936 595.559 145.711 587.815 141.26C580.115 136.809 574.195 130.623 570.056 122.7C565.917 114.733 563.847 105.52 563.847 95.0611C563.847 84.5573 565.917 75.3442 570.056 67.4219C574.24 59.455 580.182 53.2462 587.881 48.7955C595.626 44.3447 604.861 42.1193 615.587 42.1193C625.068 42.1193 633.324 43.8329 640.356 47.2599C647.433 50.687 652.952 55.5384 656.913 61.8139C660.918 68.045 663.033 75.3665 663.255 83.7784H632.745C632.122 78.5265 630.342 74.4096 627.404 71.4276C624.511 68.4456 620.728 66.9546 616.055 66.9546C612.272 66.9546 608.956 68.0227 606.107 70.1591C603.259 72.251 601.033 75.3665 599.431 79.5057C597.873 83.6004 597.095 88.6742 597.095 94.7273C597.095 100.78 597.873 105.899 599.431 110.082C601.033 114.222 603.259 117.359 606.107 119.496C608.956 121.588 612.272 122.634 616.055 122.634C619.081 122.634 621.752 121.988 624.066 120.697C626.425 119.407 628.361 117.515 629.874 115.023C631.388 112.486 632.345 109.415 632.745 105.81H663.255C662.944 114.266 660.829 121.654 656.913 127.974C653.041 134.295 647.588 139.213 640.556 142.729C633.569 146.2 625.268 147.936 615.654 147.936Z" fill="#6EDC00"/>
<path d="M523.76 146V43.4545H556.407V146H523.76ZM540.117 31.5043C535.533 31.5043 531.594 29.991 528.3 26.9645C525.007 23.8935 523.36 20.1993 523.36 15.8821C523.36 11.6094 525.007 7.95974 528.3 4.93323C531.594 1.8622 535.533 0.326691 540.117 0.326691C544.746 0.326691 548.685 1.8622 551.934 4.93323C555.227 7.95974 556.874 11.6094 556.874 15.8821C556.874 20.1993 555.227 23.8935 551.934 26.9645C548.685 29.991 544.746 31.5043 540.117 31.5043Z" fill="#6EDC00"/>
<path d="M454.032 146V43.4545H485.743V62.1477H486.811C488.681 55.3826 491.73 50.3532 495.958 47.0596C500.186 43.7216 505.104 42.0526 510.712 42.0526C512.225 42.0526 513.783 42.1638 515.385 42.3864C516.988 42.5644 518.479 42.8537 519.858 43.2543V71.6278C518.301 71.0937 516.253 70.6709 513.716 70.3594C511.224 70.0478 508.998 69.892 507.04 69.892C503.168 69.892 499.674 70.7599 496.559 72.4957C493.488 74.187 491.062 76.5682 489.282 79.6392C487.546 82.6657 486.678 86.2263 486.678 90.321V146H454.032Z" fill="#6EDC00"/>
<path d="M447.726 43.4545V67.4886H381.766V43.4545H447.726ZM395.519 146V38.2471C395.519 30.3248 397.01 23.7599 399.992 18.5525C402.974 13.3006 407.113 9.38398 412.409 6.80254C417.706 4.17659 423.825 2.86362 430.769 2.86362C435.308 2.86362 439.581 3.21968 443.587 3.93181C447.637 4.59942 450.641 5.20027 452.6 5.73436L447.392 29.6349C446.19 29.2344 444.722 28.9005 442.986 28.6335C441.295 28.3665 439.692 28.2329 438.179 28.2329C434.351 28.2329 431.726 29.0786 430.301 30.7699C428.877 32.4612 428.165 34.7756 428.165 37.7131V146H395.519Z" fill="#6EDC00"/>
<path d="M317.595 147.736C311.052 147.736 305.244 146.645 300.17 144.465C295.141 142.239 291.157 138.901 288.22 134.45C285.327 129.955 283.88 124.325 283.88 117.56C283.88 111.863 284.882 107.056 286.884 103.139C288.887 99.2225 291.647 96.0403 295.163 93.5923C298.679 91.1444 302.729 89.2974 307.313 88.0511C311.898 86.7604 316.794 85.8925 322.001 85.4474C327.831 84.9134 332.527 84.357 336.088 83.7784C339.648 83.1553 342.23 82.2874 343.832 81.1747C345.479 80.0175 346.302 78.393 346.302 76.3011V75.9673C346.302 72.5402 345.123 69.892 342.764 68.0227C340.405 66.1534 337.223 65.2188 333.217 65.2188C328.9 65.2188 325.428 66.1534 322.802 68.0227C320.176 69.892 318.507 72.4735 317.795 75.7671L287.686 74.6989C288.576 68.4678 290.868 62.9044 294.562 58.0085C298.301 53.0682 303.419 49.196 309.917 46.3921C316.46 43.5436 324.315 42.1193 333.484 42.1193C340.027 42.1193 346.057 42.8982 351.576 44.456C357.095 45.9692 361.902 48.1946 365.997 51.1321C370.091 54.0251 373.251 57.5857 375.477 61.8139C377.747 66.0421 378.882 70.8712 378.882 76.3011V146H348.171V131.713H347.37C345.545 135.185 343.209 138.122 340.36 140.526C337.556 142.929 334.241 144.732 330.413 145.933C326.63 147.135 322.357 147.736 317.595 147.736ZM327.676 126.372C331.192 126.372 334.352 125.66 337.156 124.236C340.004 122.812 342.274 120.853 343.965 118.361C345.657 115.824 346.502 112.886 346.502 109.548V99.8011C345.568 100.291 344.433 100.736 343.098 101.136C341.807 101.537 340.383 101.915 338.825 102.271C337.267 102.627 335.665 102.939 334.018 103.206C332.371 103.473 330.791 103.718 329.278 103.94C326.207 104.43 323.581 105.187 321.4 106.21C319.264 107.234 317.617 108.569 316.46 110.216C315.347 111.818 314.791 113.732 314.791 115.957C314.791 119.34 315.992 121.921 318.396 123.702C320.844 125.482 323.937 126.372 327.676 126.372Z" fill="#6EDC00"/>
<path d="M232.744 147.936C222.018 147.936 212.76 145.822 204.972 141.594C197.227 137.321 191.263 131.246 187.08 123.368C182.94 115.446 180.871 106.032 180.871 95.1278C180.871 84.535 182.963 75.2775 187.146 67.3551C191.33 59.3883 197.227 53.2017 204.838 48.7955C212.449 44.3447 221.417 42.1193 231.743 42.1193C239.042 42.1193 245.718 43.2543 251.771 45.5241C257.824 47.794 263.054 51.1544 267.46 55.6051C271.867 60.0559 275.294 65.5526 277.742 72.0952C280.189 78.5933 281.413 86.0483 281.413 94.4602V102.605H192.287V83.6449H251.037C250.992 80.1733 250.169 77.08 248.567 74.3651C246.965 71.6501 244.761 69.536 241.957 68.0227C239.198 66.465 236.016 65.6861 232.411 65.6861C228.761 65.6861 225.49 66.5095 222.597 68.1563C219.704 69.7585 217.412 71.9617 215.72 74.7656C214.029 77.5251 213.139 80.6629 213.05 84.179V103.473C213.05 107.657 213.873 111.329 215.52 114.489C217.167 117.604 219.503 120.03 222.53 121.766C225.556 123.501 229.162 124.369 233.345 124.369C236.238 124.369 238.864 123.969 241.223 123.168C243.582 122.366 245.607 121.187 247.298 119.629C248.99 118.071 250.258 116.158 251.104 113.888L281.08 114.756C279.833 121.476 277.096 127.329 272.868 132.314C268.684 137.254 263.188 141.104 256.378 143.864C249.568 146.579 241.69 147.936 232.744 147.936Z" fill="black"/>
<path d="M107.336 87.5171V146H74.6902V9.27274H106.268V62.2813H107.403C109.718 55.9612 113.501 51.0208 118.753 47.4602C124.049 43.8996 130.525 42.1193 138.18 42.1193C145.39 42.1193 151.666 43.7216 157.007 46.9262C162.348 50.0862 166.487 54.5592 169.425 60.3452C172.407 66.1312 173.875 72.8963 173.831 80.6406V146H141.185V87.0497C141.229 81.3528 139.805 76.902 136.912 73.6974C134.019 70.4929 129.946 68.8906 124.694 68.8906C121.267 68.8906 118.241 69.6473 115.615 71.1605C113.033 72.6293 111.008 74.7434 109.54 77.5029C108.115 80.2623 107.381 83.6004 107.336 87.5171Z" fill="black"/>
<path d="M65.2301 43.4545V67.4886H0.538361V43.4545H65.2301ZM14.0909 18.8864H46.7372V113.754C46.7372 115.757 47.0488 117.382 47.6719 118.628C48.3395 119.83 49.2964 120.697 50.5426 121.232C51.7888 121.721 53.2798 121.966 55.0156 121.966C56.2618 121.966 57.5748 121.855 58.9546 121.632C60.3788 121.365 61.447 121.143 62.1591 120.964L67.0994 144.531C65.5417 144.976 63.3386 145.533 60.4901 146.2C57.6861 146.868 54.3258 147.291 50.4091 147.469C42.7538 147.825 36.1889 146.935 30.7145 144.798C25.2846 142.617 21.1231 139.235 18.2301 134.651C15.3816 130.066 14.0019 124.303 14.0909 117.359V18.8864Z" fill="black"/>
</svg>
