<svg width="504" height="148" viewBox="0 0 504 148" fill="none" xmlns="http://www.w3.org/2000/svg">
<path d="M437.485 146V43.4545H469.196V62.1477H470.265C472.134 55.3826 475.183 50.3532 479.411 47.0596C483.639 43.7216 488.557 42.0526 494.165 42.0526C495.678 42.0526 497.236 42.1638 498.838 42.3864C500.441 42.5644 501.932 42.8537 503.311 43.2543V71.6278C501.754 71.0937 499.706 70.6709 497.169 70.3594C494.677 70.0478 492.452 69.892 490.493 69.892C486.621 69.892 483.127 70.7599 480.012 72.4957C476.941 74.187 474.515 76.5682 472.735 79.6392C470.999 82.6657 470.131 86.2263 470.131 90.321V146H437.485Z" fill="#6EDC00"/>
<path d="M367.756 146V43.4545H399.467V62.1477H400.536C402.405 55.3826 405.454 50.3532 409.682 47.0596C413.91 43.7216 418.828 42.0526 424.436 42.0526C425.95 42.0526 427.507 42.1638 429.11 42.3864C430.712 42.5644 432.203 42.8537 433.583 43.2543V71.6278C432.025 71.0937 429.977 70.6709 427.441 70.3594C424.948 70.0478 422.723 69.892 420.764 69.892C416.892 69.892 413.398 70.7599 410.283 72.4957C407.212 74.187 404.786 76.5682 403.006 79.6392C401.27 82.6657 400.402 86.2263 400.402 90.321V146H367.756Z" fill="#6EDC00"/>
<path d="M311.813 147.936C301.087 147.936 291.829 145.822 284.04 141.594C276.296 137.321 270.332 131.246 266.148 123.368C262.009 115.446 259.94 106.032 259.94 95.1278C259.94 84.535 262.031 75.2775 266.215 67.3551C270.399 59.3883 276.296 53.2017 283.907 48.7955C291.518 44.3447 300.486 42.1193 310.812 42.1193C318.111 42.1193 324.787 43.2543 330.84 45.5241C336.893 47.794 342.123 51.1544 346.529 55.6051C350.935 60.0559 354.362 65.5526 356.81 72.0952C359.258 78.5933 360.482 86.0483 360.482 94.4602V102.605H271.356V83.6449H330.106C330.061 80.1733 329.238 77.08 327.636 74.3651C326.033 71.6501 323.83 69.536 321.026 68.0227C318.267 66.465 315.084 65.6861 311.479 65.6861C307.83 65.6861 304.558 66.5095 301.665 68.1563C298.772 69.7585 296.48 71.9617 294.789 74.7656C293.098 77.5251 292.208 80.6629 292.119 84.179V103.473C292.119 107.657 292.942 111.329 294.589 114.489C296.235 117.604 298.572 120.03 301.599 121.766C304.625 123.501 308.23 124.369 312.414 124.369C315.307 124.369 317.933 123.969 320.292 123.168C322.651 122.366 324.676 121.187 326.367 119.629C328.058 118.071 329.327 116.158 330.173 113.888L360.148 114.756C358.902 121.476 356.165 127.329 351.937 132.314C347.753 137.254 342.256 141.104 335.447 143.864C328.637 146.579 320.759 147.936 311.813 147.936Z" fill="black"/>
<path d="M186.772 87.5171V146H154.126V43.4546H185.17V62.2813H186.305C188.575 56.0057 192.447 51.0876 197.922 47.527C203.396 43.9219 209.916 42.1193 217.483 42.1193C224.693 42.1193 230.946 43.7438 236.243 46.9929C241.583 50.1974 245.723 54.6927 248.66 60.4787C251.642 66.2202 253.111 72.9408 253.066 80.6406V146H220.42V87.0497C220.465 81.3527 219.018 76.902 216.081 73.6974C213.188 70.4929 209.16 68.8906 203.997 68.8906C200.57 68.8906 197.543 69.6473 194.917 71.1605C192.336 72.6293 190.333 74.7434 188.909 77.5028C187.529 80.2623 186.817 83.6004 186.772 87.5171Z" fill="black"/>
<path d="M110.1 146V43.4546H142.747V146H110.1ZM126.457 31.5043C121.873 31.5043 117.934 29.991 114.64 26.9645C111.347 23.8935 109.7 20.1994 109.7 15.8821C109.7 11.6094 111.347 7.95977 114.64 4.93326C117.934 1.86223 121.873 0.326721 126.457 0.326721C131.086 0.326721 135.025 1.86223 138.274 4.93326C141.567 7.95977 143.214 11.6094 143.214 15.8821C143.214 20.1994 141.567 23.8935 138.274 26.9645C135.025 29.991 131.086 31.5043 126.457 31.5043Z" fill="black"/>
<path d="M32.9943 87.5171V146H0.348022V43.4546H31.3921V62.2813H32.527C34.7969 56.0057 38.669 51.0876 44.1435 47.527C49.6179 43.9219 56.1383 42.1193 63.7046 42.1193C70.9148 42.1193 77.1681 43.7438 82.4645 46.9929C87.8054 50.1974 91.9446 54.6927 94.8821 60.4787C97.8641 66.2202 99.3329 72.9408 99.2884 80.6406V146H66.6421V87.0497C66.6866 81.3527 65.2401 76.902 62.3026 73.6974C59.4096 70.4929 55.3816 68.8906 50.2188 68.8906C46.7917 68.8906 43.7652 69.6473 41.1392 71.1605C38.5578 72.6293 36.5549 74.7434 35.1307 77.5028C33.751 80.2623 33.0388 83.6004 32.9943 87.5171Z" fill="black"/>
</svg>
