<svg width="752" height="148" viewBox="0 0 752 148" fill="none" xmlns="http://www.w3.org/2000/svg">
<path d="M597.542 146V43.4546H628.586V62.2813H629.721C631.857 56.0502 635.462 51.1321 640.536 47.527C645.61 43.9219 651.663 42.1193 658.695 42.1193C665.816 42.1193 671.914 43.9441 676.988 47.5938C682.062 51.2434 685.288 56.1392 686.668 62.2813H687.736C689.65 56.1837 693.389 51.3101 698.952 47.6605C704.516 43.9664 711.081 42.1193 718.647 42.1193C728.35 42.1193 736.227 45.2349 742.28 51.4659C748.333 57.6525 751.36 66.1534 751.36 76.9688V146H718.714V84.446C718.714 79.3277 717.401 75.4332 714.775 72.7628C712.149 70.0478 708.744 68.6903 704.56 68.6903C700.065 68.6903 696.527 70.1591 693.945 73.0966C691.408 75.9896 690.14 79.884 690.14 84.7798V146H658.762V84.1122C658.762 79.3499 657.471 75.589 654.89 72.8296C652.308 70.0701 648.903 68.6903 644.675 68.6903C641.827 68.6903 639.312 69.3802 637.131 70.7599C634.95 72.0952 633.237 74.009 631.991 76.5014C630.789 78.9939 630.188 81.9314 630.188 85.3139V146H597.542Z" fill="#6EDC00"/>
<path d="M553.583 101.737V43.4545H586.162V146H555.052V126.906H553.983C551.713 133.182 547.841 138.167 542.367 141.861C536.937 145.51 530.372 147.335 522.672 147.335C515.685 147.335 509.542 145.733 504.246 142.528C498.95 139.324 494.833 134.851 491.895 129.109C488.958 123.323 487.467 116.558 487.422 108.814V43.4545H520.069V102.405C520.113 107.968 521.582 112.352 524.475 115.557C527.368 118.761 531.307 120.364 536.292 120.364C539.541 120.364 542.456 119.651 545.037 118.227C547.663 116.758 549.733 114.644 551.246 111.885C552.804 109.081 553.583 105.698 553.583 101.737Z" fill="#6EDC00"/>
<path d="M443.396 146V43.4546H476.043V146H443.396ZM459.753 31.5043C455.169 31.5043 451.23 29.991 447.936 26.9645C444.643 23.8935 442.996 20.1994 442.996 15.8821C442.996 11.6094 444.643 7.95977 447.936 4.93326C451.23 1.86223 455.169 0.326721 459.753 0.326721C464.382 0.326721 468.321 1.86223 471.57 4.93326C474.863 7.95977 476.51 11.6094 476.51 15.8821C476.51 20.1994 474.863 23.8935 471.57 26.9645C468.321 29.991 464.382 31.5043 459.753 31.5043Z" fill="#6EDC00"/>
<path d="M278.75 146V43.4546H309.794V62.2813H310.929C313.065 56.0502 316.67 51.1321 321.744 47.527C326.818 43.9219 332.871 42.1193 339.903 42.1193C347.024 42.1193 353.122 43.9441 358.196 47.5938C363.269 51.2434 366.496 56.1392 367.876 62.2813H368.944C370.858 56.1837 374.597 51.3101 380.16 47.6605C385.724 43.9664 392.288 42.1193 399.855 42.1193C409.557 42.1193 417.435 45.2349 423.488 51.4659C429.541 57.6525 432.568 66.1534 432.568 76.9688V146H399.921V84.446C399.921 79.3277 398.608 75.4332 395.983 72.7628C393.357 70.0478 389.952 68.6903 385.768 68.6903C381.273 68.6903 377.734 70.1591 375.153 73.0966C372.616 75.9896 371.348 79.884 371.348 84.7798V146H339.97V84.1122C339.97 79.3499 338.679 75.589 336.098 72.8296C333.516 70.0701 330.111 68.6903 325.883 68.6903C323.035 68.6903 320.52 69.3802 318.339 70.7599C316.158 72.0952 314.445 74.009 313.198 76.5014C311.997 78.9939 311.396 81.9314 311.396 85.3139V146H278.75Z" fill="black"/>
<path d="M219.619 147.936C208.848 147.936 199.591 145.733 191.846 141.327C184.146 136.876 178.205 130.689 174.021 122.767C169.882 114.8 167.812 105.565 167.812 95.0611C167.812 84.5128 169.882 75.2775 174.021 67.3551C178.205 59.3883 184.146 53.2017 191.846 48.7955C199.591 44.3447 208.848 42.1193 219.619 42.1193C230.39 42.1193 239.625 44.3447 247.325 48.7955C255.069 53.2017 261.011 59.3883 265.15 67.3551C269.334 75.2775 271.426 84.5128 271.426 95.0611C271.426 105.565 269.334 114.8 265.15 122.767C261.011 130.689 255.069 136.876 247.325 141.327C239.625 145.733 230.39 147.936 219.619 147.936ZM219.819 123.301C223.736 123.301 227.052 122.099 229.767 119.696C232.482 117.293 234.551 113.955 235.976 109.682C237.444 105.409 238.179 100.469 238.179 94.8608C238.179 89.1638 237.444 84.179 235.976 79.9063C234.551 75.6335 232.482 72.2955 229.767 69.8921C227.052 67.4886 223.736 66.2869 219.819 66.2869C215.769 66.2869 212.342 67.4886 209.538 69.8921C206.779 72.2955 204.664 75.6335 203.196 79.9063C201.771 84.179 201.059 89.1638 201.059 94.8608C201.059 100.469 201.771 105.409 203.196 109.682C204.664 113.955 206.779 117.293 209.538 119.696C212.342 122.099 215.769 123.301 219.819 123.301Z" fill="black"/>
<path d="M112.621 147.936C101.85 147.936 92.5922 145.733 84.8479 141.327C77.1481 136.876 71.2063 130.689 67.0226 122.767C62.8834 114.8 60.8138 105.565 60.8138 95.0611C60.8138 84.5128 62.8834 75.2775 67.0226 67.3551C71.2063 59.3883 77.1481 53.2017 84.8479 48.7955C92.5922 44.3447 101.85 42.1193 112.621 42.1193C123.391 42.1193 132.627 44.3447 140.327 48.7955C148.071 53.2017 154.013 59.3883 158.152 67.3551C162.336 75.2775 164.427 84.5128 164.427 95.0611C164.427 105.565 162.336 114.8 158.152 122.767C154.013 130.689 148.071 136.876 140.327 141.327C132.627 145.733 123.391 147.936 112.621 147.936ZM112.821 123.301C116.738 123.301 120.053 122.099 122.768 119.696C125.483 117.293 127.553 113.955 128.977 109.682C130.446 105.409 131.18 100.469 131.18 94.8608C131.18 89.1638 130.446 84.179 128.977 79.9063C127.553 75.6335 125.483 72.2955 122.768 69.8921C120.053 67.4886 116.738 66.2869 112.821 66.2869C108.771 66.2869 105.344 67.4886 102.54 69.8921C99.7802 72.2955 97.6661 75.6335 96.1973 79.9063C94.7731 84.179 94.0609 89.1638 94.0609 94.8608C94.0609 100.469 94.7731 105.409 96.1973 109.682C97.6661 113.955 99.7802 117.293 102.54 119.696C105.344 122.099 108.771 123.301 112.821 123.301Z" fill="black"/>
<path d="M0.348022 146V43.4545H32.0597V62.1477H33.1279C34.9972 55.3826 38.0459 50.3532 42.2742 47.0596C46.5024 43.7216 51.4205 42.0526 57.0284 42.0526C58.5417 42.0526 60.0994 42.1638 61.7017 42.3864C63.304 42.5644 64.795 42.8537 66.1747 43.2543V71.6278C64.617 71.0937 62.5696 70.6709 60.0327 70.3594C57.5403 70.0478 55.3149 69.892 53.3565 69.892C49.4844 69.892 45.9905 70.7599 42.875 72.4957C39.804 74.187 37.3783 76.5682 35.598 79.6392C33.8622 82.6657 32.9943 86.2263 32.9943 90.321V146H0.348022Z" fill="black"/>
</svg>
